<svg width="10" height="10" viewBox="0 0 10 10" fill="none" xmlns="http://www.w3.org/2000/svg">
<path d="M9.81936 2.22575L8.94196 1.34834C8.82165 1.22795 8.67533 1.16772 8.50334 1.16772C8.3312 1.16772 8.18488 1.22795 8.06457 1.34834L3.83226 5.58706L1.93547 3.68381C1.81503 3.56336 1.6688 3.50321 1.49681 3.50321C1.32471 3.50321 1.17849 3.56336 1.05805 3.68381L0.180642 4.56123C0.0601989 4.68165 0 4.82793 0 5C0 5.17195 0.0601989 5.31835 0.180642 5.43875L2.51608 7.77415L3.39355 8.65155C3.51393 8.77204 3.6602 8.83219 3.83226 8.83219C4.00424 8.83219 4.15052 8.77188 4.27096 8.65155L5.14841 7.77415L9.81936 3.10322C9.93969 2.98278 10 2.83653 10 2.66445C10.0001 2.49246 9.93969 2.34619 9.81936 2.22575Z" fill="#FFA25C"/>
</svg>