<svg width="40" height="40" viewBox="0 0 40 40" fill="none" xmlns="http://www.w3.org/2000/svg">
							<path d="M10.6898 21.6667L19.5115 30.4883C19.8151 30.8027 19.9831 31.2237 19.9793 31.6607C19.9755 32.0977 19.8002 32.5157 19.4912 32.8247C19.1822 33.1337 18.7642 33.309 18.3272 33.3128C17.8902 33.3166 17.4692 33.1486 17.1548 32.845L5.48818 21.1783C4.43818 20.1283 5.18152 18.3333 6.66652 18.3333H33.3332C33.7752 18.3333 34.1991 18.5089 34.5117 18.8215C34.8243 19.1341 34.9998 19.558 34.9998 20C34.9998 20.442 34.8243 20.866 34.5117 21.1785C34.1991 21.4911 33.7752 21.6667 33.3332 21.6667H10.6898ZM17.2265 7.08834C17.3886 6.9344 17.5799 6.81463 17.7892 6.73615C17.9985 6.65767 18.2214 6.62209 18.4447 6.63152C18.668 6.64095 18.8872 6.6952 19.0891 6.79105C19.291 6.88689 19.4716 7.02237 19.6201 7.18943C19.7686 7.35648 19.882 7.5517 19.9535 7.76346C20.025 7.97523 20.0532 8.19921 20.0363 8.42209C20.0195 8.64497 19.9581 8.86219 19.8556 9.06083C19.7531 9.25946 19.6117 9.43546 19.4398 9.57834L11.9398 16.245C11.6073 16.5215 11.1803 16.6578 10.749 16.6253C10.3178 16.5928 9.91604 16.3939 9.62872 16.0706C9.3414 15.7474 9.19097 15.3251 9.20922 14.893C9.22747 14.4609 9.41296 14.0529 9.72652 13.755L17.2265 7.08834Z" fill="#626262"/>
						</svg>