<?xml version="1.0" encoding="iso-8859-1"?>
<!-- Generator: Adobe Illustrator 19.0.0, SVG Export Plug-In . SVG Version: 6.00 Build 0)  -->
<svg version="1.1" id="Capa_1" xmlns="http://www.w3.org/2000/svg" xmlns:xlink="http://www.w3.org/1999/xlink" x="0px" y="0px"
	 viewBox="0 0 512.01 512.01" style="enable-background:new 0 0 512.01 512.01;" xml:space="preserve">
<g>
	<g>
		<path d="M162.906,0.404c-5.667-1.601-11.559,1.694-13.163,7.36L11.077,498.431c-1.601,5.667,1.694,11.559,7.36,13.163
			c0.944,0.27,1.92,0.41,2.901,0.416c4.776-0.003,8.967-3.179,10.261-7.776L170.266,13.567C171.867,7.9,168.572,2.008,162.906,0.404
			z"/>
	</g>
</g>
<g>
	<g>
		<path d="M500.933,498.442L362.266,7.775c-1.602-5.67-7.498-8.968-13.168-7.365c-5.67,1.602-8.968,7.498-7.365,13.168
			L480.4,504.244c1.299,4.596,5.496,7.769,10.272,7.765c0.981-0.003,1.957-0.139,2.901-0.405
			C499.239,510.001,502.533,504.109,500.933,498.442z"/>
	</g>
</g>
<g>
	<g>
		<path d="M256.005,405.343c-5.891,0-10.667,4.776-10.667,10.667v85.333c0,5.891,4.776,10.667,10.667,10.667
			c5.891,0,10.667-4.776,10.667-10.667V416.01C266.671,410.119,261.896,405.343,256.005,405.343z"/>
	</g>
</g>
<g>
	<g>
		<path d="M256.005,234.676c-5.891,0-10.667,4.776-10.667,10.667v85.333c0,5.891,4.776,10.667,10.667,10.667
			c5.891,0,10.667-4.776,10.667-10.667v-85.333C266.671,239.452,261.896,234.676,256.005,234.676z"/>
	</g>
</g>
<g>
	<g>
		<path d="M256.005,85.343c-5.891,0-10.667,4.776-10.667,10.667v64c0,5.891,4.776,10.667,10.667,10.667
			c5.891,0,10.667-4.776,10.667-10.667v-64C266.671,90.119,261.896,85.343,256.005,85.343z"/>
	</g>
</g>
<g>
	<g>
		<path d="M256.005,0.01c-5.891,0-10.667,4.776-10.667,10.667V32.01c0,5.891,4.776,10.667,10.667,10.667
			c5.891,0,10.667-4.776,10.667-10.667V10.676C266.671,4.785,261.896,0.01,256.005,0.01z"/>
	</g>
</g>
<g>
</g>
<g>
</g>
<g>
</g>
<g>
</g>
<g>
</g>
<g>
</g>
<g>
</g>
<g>
</g>
<g>
</g>
<g>
</g>
<g>
</g>
<g>
</g>
<g>
</g>
<g>
</g>
<g>
</g>
</svg>
